<svg xmlns="http://www.w3.org/2000/svg" viewBox="0 0 117 93"><defs><style>.a{fill:#d0abc1;}.b{opacity:0.18;}</style></defs><title>candle</title><path class="a" d="M7.83,37H109.17A7.83,7.83,0,0,1,117,44.83V93a0,0,0,0,1,0,0H0a0,0,0,0,1,0,0V44.83A7.83,7.83,0,0,1,7.83,37Z"/><rect x="56" width="5" height="37"/><g class="b"><path d="M88.5,37h-66a4,4,0,0,0-4,4V67a4,4,0,0,0,4,4h2a4,4,0,0,0,4-4V51a4,4,0,0,1,4-4h2a4,4,0,0,1,4,4V73a4,4,0,0,0,4,4h2a4,4,0,0,0,4-4V63a4,4,0,0,1,4-4h2a4,4,0,0,1,4,4h0a4,4,0,0,0,4,4h2a4,4,0,0,0,4-4V56a4,4,0,0,1,4-4h2a4,4,0,0,1,4,4V79a4,4,0,0,0,4,4h2a4,4,0,0,0,4-4V70a4,4,0,0,1,4-4h2a4,4,0,0,0,4-4V41a4,4,0,0,0-4-4Z"/><rect x="18.5" y="37" width="80" height="9"/></g></svg>