<svg xmlns="http://www.w3.org/2000/svg" viewBox="0 0 117 107"><defs><style>.a{fill:#d0abc1;}.b{opacity:0.18;}.c{fill:#f15a24;}</style></defs><title>fire</title><path class="a" d="M7.83,51H109.17A7.83,7.83,0,0,1,117,58.83V107a0,0,0,0,1,0,0H0a0,0,0,0,1,0,0V58.83A7.83,7.83,0,0,1,7.83,51Z"/><rect x="56" y="24" width="5" height="27"/><g class="b"><path d="M88.5,51h-66a4,4,0,0,0-4,4V81a4,4,0,0,0,4,4h2a4,4,0,0,0,4-4V65a4,4,0,0,1,4-4h2a4,4,0,0,1,4,4V87a4,4,0,0,0,4,4h2a4,4,0,0,0,4-4V77a4,4,0,0,1,4-4h2a4,4,0,0,1,4,4h0a4,4,0,0,0,4,4h2a4,4,0,0,0,4-4V70a4,4,0,0,1,4-4h2a4,4,0,0,1,4,4V93a4,4,0,0,0,4,4h2a4,4,0,0,0,4-4V84a4,4,0,0,1,4-4h2a4,4,0,0,0,4-4V55a4,4,0,0,0-4-4Z"/><rect x="18.5" y="51" width="80" height="9"/></g><path class="c" d="M59.28,0s2.49,6.33,2.62,11.59a3.36,3.36,0,0,1-.24,1.3A19.62,19.62,0,0,1,59.52,17a2.06,2.06,0,0,1-.95.69c-.37.15-.8.3-1.28.47a15.34,15.34,0,0,1-1.12-5.54,22.78,22.78,0,0,1,1.55-7.9S51.5,14.22,51.5,22.52c0,5.24,3.13,9.48,7,9.48s7-4.25,7-9.48A44.77,44.77,0,0,0,59.28,0Z"/></svg>