<?xml version="1.0" encoding="UTF-8" standalone="no"?>
<svg
   xmlns:dc="http://purl.org/dc/elements/1.1/"
   xmlns:cc="http://creativecommons.org/ns#"
   xmlns:rdf="http://www.w3.org/1999/02/22-rdf-syntax-ns#"
   xmlns:svg="http://www.w3.org/2000/svg"
   xmlns="http://www.w3.org/2000/svg"
   id="svg23"
   version="1.1"
   height="1080"
   width="1920"
   viewBox="0 0 1920 1080"
   style="isolation:isolate">
  <metadata
     id="metadata27">
    <rdf:RDF>
      <cc:Work
         rdf:about="">
        <dc:format>image/svg+xml</dc:format>
        <dc:type
           rdf:resource="http://purl.org/dc/dcmitype/StillImage" />
      </cc:Work>
    </rdf:RDF>
  </metadata>
  <defs
     id="defs5">
    <clipPath
       id="_clipPath_tOjQ6sZLT8Gceq9NmwpUVuxF7ANPT7p0">
      <rect
         id="rect2"
         height="1080"
         width="1920" />
    </clipPath>
  </defs>
  <g
     id="g21"
     clip-path="url(#_clipPath_tOjQ6sZLT8Gceq9NmwpUVuxF7ANPT7p0)">
    <path
       id="path7"
       fill="rgb(253,184,80)"
       d=" M 753.299 595.583 C 727.203 550.383 739.323 494.457 780.347 470.772 C 821.371 447.087 875.864 464.554 901.96 509.754 C 928.056 554.954 915.937 610.88 874.913 634.565 C 833.889 658.25 779.396 640.783 753.299 595.583 Z " />
    <path
       id="path9"
       fill="rgb(255,255,255)"
       d=" M 790.243 574.254 C 780.261 556.965 782.119 537.178 794.389 530.094 C 806.659 523.01 824.724 531.294 834.706 548.583 C 844.687 565.872 842.83 585.659 830.56 592.743 C 818.29 599.828 800.224 591.543 790.243 574.254 Z " />
    <rect
       id="rect11"
       fill="rgb(253,184,80)"
       transform="matrix(-0.513,-0.858,0.858,-0.513,1170.19,1543.595)"
       height="291"
       width="42"
       y="294.521"
       x="1001.742" />
    <rect
       id="rect13"
       fill="rgb(253,184,80)"
       transform="matrix(-0.513,-0.858,0.858,-0.513,1402.029,1448.14)"
       height="22"
       width="45.5"
       y="315.561"
       x="1088.847" />
    <rect
       id="rect15"
       fill="rgb(253,184,80)"
       transform="matrix(-0.513,-0.858,0.858,-0.513,1339.414,1449.598)"
       height="22"
       width="45.5"
       y="334.043"
       x="1057.953" />
    <rect
       id="rect17"
       fill="rgb(253,184,80)"
       transform="matrix(-0.513,-0.858,0.858,-0.513,1276.8,1451.056)"
       height="22"
       width="45.5"
       y="352.524"
       x="1027.059" />
    <rect
       id="rect19"
       fill="rgb(253,184,80)"
       transform="matrix(-0.513,-0.858,0.858,-0.513,1340.781,1508.299)"
       height="94"
       width="22"
       y="327.006"
       x="1087.029" />
  </g>
</svg>
