<svg xmlns="http://www.w3.org/2000/svg" viewBox="0 0 201.99 343.59"><defs><style>.baa31fbd-18dd-4af8-aa90-043757ad594e{fill:none;stroke:#000;stroke-miterlimit:10;}</style></defs><title>lockpick</title><g id="ab756082-91fc-4af1-bb8e-a765e2cce85b" data-name="Layer 2"><g id="fa338bc5-ce51-4c06-b5b0-cff0c38a1451" data-name="Layer 1"><path class="baa31fbd-18dd-4af8-aa90-043757ad594e" d="M201.55,2.88c-4.17,7.23-8.58,12.51-9.84,11.78S192.82,7.48,197,.25"/><ellipse class="baa31fbd-18dd-4af8-aa90-043757ad594e" cx="184.15" cy="27.76" rx="15.12" ry="2.63" transform="translate(68.04 173.36) rotate(-60)"/><ellipse class="baa31fbd-18dd-4af8-aa90-043757ad594e" cx="169.03" cy="53.94" rx="15.12" ry="2.63" transform="translate(37.8 173.36) rotate(-60)"/><ellipse class="baa31fbd-18dd-4af8-aa90-043757ad594e" cx="153.91" cy="80.13" rx="15.12" ry="2.63" transform="translate(7.56 173.36) rotate(-60)"/><ellipse class="baa31fbd-18dd-4af8-aa90-043757ad594e" cx="138.79" cy="106.32" rx="15.12" ry="2.63" transform="translate(-22.68 173.36) rotate(-60)"/><ellipse class="baa31fbd-18dd-4af8-aa90-043757ad594e" cx="123.67" cy="132.51" rx="15.12" ry="2.63" transform="translate(-52.92 173.36) rotate(-60)"/><ellipse class="baa31fbd-18dd-4af8-aa90-043757ad594e" cx="108.55" cy="158.7" rx="15.12" ry="2.63" transform="translate(-83.16 173.36) rotate(-60)"/><ellipse class="baa31fbd-18dd-4af8-aa90-043757ad594e" cx="93.43" cy="184.89" rx="15.12" ry="2.63" transform="translate(-113.4 173.36) rotate(-60)"/><ellipse class="baa31fbd-18dd-4af8-aa90-043757ad594e" cx="78.31" cy="211.08" rx="15.12" ry="2.63" transform="translate(-143.64 173.36) rotate(-60)"/><ellipse class="baa31fbd-18dd-4af8-aa90-043757ad594e" cx="63.19" cy="237.26" rx="15.12" ry="2.63" transform="translate(-173.88 173.36) rotate(-60)"/><ellipse class="baa31fbd-18dd-4af8-aa90-043757ad594e" cx="48.07" cy="263.45" rx="15.12" ry="2.63" transform="translate(-204.12 173.36) rotate(-60)"/><ellipse class="baa31fbd-18dd-4af8-aa90-043757ad594e" cx="32.95" cy="289.64" rx="15.12" ry="2.63" transform="translate(-234.36 173.36) rotate(-60)"/><ellipse class="baa31fbd-18dd-4af8-aa90-043757ad594e" cx="17.83" cy="315.83" rx="15.12" ry="2.63" transform="translate(-264.6 173.36) rotate(-60)"/><path class="baa31fbd-18dd-4af8-aa90-043757ad594e" d="M.43,340.7c4.18-7.23,8.58-12.5,9.84-11.78S9.17,336.1,5,343.34"/></g></g></svg>