<?xml version="1.0" standalone="no"?><!-- Generator: Gravit.io --><svg xmlns="http://www.w3.org/2000/svg" xmlns:xlink="http://www.w3.org/1999/xlink" style="isolation:isolate" viewBox="0 0 1920 1080" width="1920" height="1080"><defs><clipPath id="_clipPath_09CH8UbXCcgAL72DI2DD30euioajo8D6"><rect width="1920" height="1080"/></clipPath></defs><g clip-path="url(#_clipPath_09CH8UbXCcgAL72DI2DD30euioajo8D6)"><rect width="1920" height="1080" style="fill:rgb(46,46,46)"/><g style="isolation:isolate"><g><rect x="1388" y="267" width="311" height="373" transform="matrix(1,0,0,1,0,0)" fill="rgb(93,93,93)"/><path d="" fill-rule="evenodd" fill="rgb(37,18,72)"/><path d=" M 1417 473.374 L 1526 473.374 L 1526 608 L 1417 608 L 1417 473.374 L 1417 473.374 L 1417 473.374 Z  M 1565 473.374 L 1674 473.374 L 1674 608 L 1565 608 L 1565 473.374 L 1565 473.374 L 1565 473.374 Z  M 1417 306 L 1526 306 L 1526 440.626 L 1417 440.626 L 1417 306 L 1417 306 Z  M 1565 306 L 1674 306 L 1674 440.626 L 1565 440.626 L 1565 306 Z " fill-rule="evenodd" fill="rgb(29,28,100)"/><defs><filter id="0opKazDPSoYT4S7vAWzfBUYyVsBhVgNs" x="-200%" y="-200%" width="400%" height="400%" filterUnits="objectBoundingBox" color-interpolation-filters="sRGB"><feOffset xmlns="http://www.w3.org/2000/svg" in="SourceGraphic" dx="0" dy="0"/><feGaussianBlur xmlns="http://www.w3.org/2000/svg" stdDeviation="2.146804531419514" result="pf_100_offsetBlur"/><feComposite xmlns="http://www.w3.org/2000/svg" in="SourceGraphic" in2="pf_100_offsetBlur" result="pf_100_inverse" operator="out"/><feFlood xmlns="http://www.w3.org/2000/svg" flood-color="#000000" flood-opacity="0.5" result="pf_100_color"/><feComposite xmlns="http://www.w3.org/2000/svg" in="pf_100_color" in2="pf_100_inverse" operator="in" result="pf_100_shadow"/><feComposite xmlns="http://www.w3.org/2000/svg" in="pf_100_shadow" in2="SourceGraphic" operator="over" result="_out_KnRZ2hb8RpZGKusCesZ0P7OwLVrSvaPh"/><feOffset xmlns="http://www.w3.org/2000/svg" in="_out_KnRZ2hb8RpZGKusCesZ0P7OwLVrSvaPh" dx="0" dy="0"/><feGaussianBlur xmlns="http://www.w3.org/2000/svg" stdDeviation="2.146804531419514" result="pf_101_offsetBlur"/><feComposite xmlns="http://www.w3.org/2000/svg" in="_out_KnRZ2hb8RpZGKusCesZ0P7OwLVrSvaPh" in2="pf_101_offsetBlur" result="pf_101_inverse" operator="out"/><feFlood xmlns="http://www.w3.org/2000/svg" flood-color="#000000" flood-opacity="0.5" result="pf_101_color"/><feComposite xmlns="http://www.w3.org/2000/svg" in="pf_101_color" in2="pf_101_inverse" operator="in" result="pf_101_shadow"/><feComposite xmlns="http://www.w3.org/2000/svg" in="pf_101_shadow" in2="_out_KnRZ2hb8RpZGKusCesZ0P7OwLVrSvaPh" operator="over" result="_out_jVqWfkGp7h6S7WQrmo1TLfLTCd0lqUNZ"/><feMerge><feMergeNode in="_out_jVqWfkGp7h6S7WQrmo1TLfLTCd0lqUNZ"/></feMerge></filter></defs><g filter="url(#0opKazDPSoYT4S7vAWzfBUYyVsBhVgNs)"><rect x="1366" y="637" width="355" height="53" transform="matrix(1,0,0,1,0,0)" fill="rgb(83,82,82)"/></g></g><path d="M 880.921 443 L 1039.079 443 C 1049.936 443 1058.75 451.814 1058.75 462.671 L 1058.75 617.329 C 1058.75 628.186 1049.936 637 1039.079 637 L 880.921 637 C 870.064 637 861.25 628.186 861.25 617.329 L 861.25 462.671 C 861.25 451.814 870.064 443 880.921 443 Z" style="stroke:none;fill:#000000;stroke-miterlimit:10;"/><path d="M 880.921 443 L 1039.079 443 C 1049.936 443 1058.75 451.814 1058.75 462.671 L 1058.75 617.329 C 1058.75 628.186 1049.936 637 1039.079 637 L 880.921 637 C 870.064 637 861.25 628.186 861.25 617.329 L 861.25 462.671 C 861.25 451.814 870.064 443 880.921 443 Z" style="fill:none;stroke:#000000;stroke-width:10;stroke-linecap:square;stroke-miterlimit:2;"/><path d="M 914.192 483.811 L 1005.808 483.811 C 1012.097 483.811 1017.203 488.917 1017.203 495.206 L 1017.203 584.794 C 1017.203 591.083 1012.097 596.189 1005.808 596.189 L 914.192 596.189 C 907.903 596.189 902.797 591.083 902.797 584.794 L 902.797 495.206 C 902.797 488.917 907.903 483.811 914.192 483.811 Z" style="stroke:none;fill:#00CF00;stroke-linecap:square;stroke-miterlimit:2;"/></g><g style="isolation:isolate"><rect x="77" y="66.25" width="1684" height="59" transform="matrix(1,0,0,1,0,0)" fill="rgb(235,235,235)" vector-effect="non-scaling-stroke" stroke-width="1" stroke="rgb(139,139,139)" stroke-linejoin="miter" stroke-linecap="square" stroke-miterlimit="2"/><path d=" M 892 73 L 929 95.5 L 892 73 L 892 73 L 892 73 Z  M 929 95.5 L 892 110 L 929 95.5 L 929 95.5 L 929 95.5 Z  M 892 110 L 929 125 L 892 110 L 892 110 Z  M 892 73 L 922 66 L 892 73 Z " fill-rule="evenodd" fill="none" vector-effect="non-scaling-stroke" stroke-width="4" stroke="rgb(93,93,93)" stroke-linejoin="miter" stroke-linecap="square" stroke-miterlimit="3"/><path d="M 72.29 -13 L 91.71 -13 C 103.46 -13 113 -3.46 113 8.29 L 113 103.71 C 113 115.46 103.46 125 91.71 125 L 72.29 125 C 60.54 125 51 115.46 51 103.71 L 51 8.29 C 51 -3.46 60.54 -13 72.29 -13 Z" style="stroke:none;fill:#EBEBEB;stroke-linecap:square;stroke-miterlimit:2;"/><path d="M 1767.29 -13 L 1786.71 -13 C 1798.46 -13 1808 -3.46 1808 8.29 L 1808 103.71 C 1808 115.46 1798.46 125 1786.71 125 L 1767.29 125 C 1755.54 125 1746 115.46 1746 103.71 L 1746 8.29 C 1746 -3.46 1755.54 -13 1767.29 -13 Z" style="stroke:none;fill:#EBEBEB;stroke-linecap:square;stroke-miterlimit:2;"/><rect x="1746" y="0" width="15" height="66" transform="matrix(1,0,0,1,0,0)" fill="rgb(139,139,139)"/><path d="M 1707.472 66 L 1760.528 66 C 1760.789 66 1761 66.211 1761 66.472 L 1761 75.528 C 1761 75.789 1760.789 76 1760.528 76 L 1707.472 76 C 1707.211 76 1707 75.789 1707 75.528 L 1707 66.472 C 1707 66.211 1707.211 66 1707.472 66 Z" style="stroke:none;fill:#8B8B8B;stroke-linecap:square;stroke-miterlimit:2;"/></g><g style="isolation:isolate"><ellipse vector-effect="non-scaling-stroke" cx="960" cy="539.5098305166122" rx="8.83130081300817" ry="8.891744286537346" fill="rgb(0,0,0)"/></g><g style="isolation:isolate"><ellipse vector-effect="non-scaling-stroke" cx="960" cy="540" rx="8.83130081300817" ry="8.891744286537346" fill="rgb(230,8,8)" stroke-width="2" stroke="rgb(0,0,0)" stroke-linejoin="miter" stroke-linecap="square" stroke-miterlimit="3"/></g><g style="isolation:isolate"><rect x="891.727" y="64.877" width="48.273" height="53" transform="matrix(1,0,0,1,0,0)" fill="rgb(142,142,142)" vector-effect="non-scaling-stroke" stroke-width="1" stroke="rgb(46,46,46)" stroke-linejoin="miter" stroke-linecap="square" stroke-miterlimit="2"/><path d=" M 937.068 124 L 903.742 138.158 L 897.727 124 L 937.068 124 L 937.068 124 Z " fill="rgb(46,46,46)" vector-effect="non-scaling-stroke" stroke-width="1" stroke="rgb(46,46,46)" stroke-linejoin="miter" stroke-linecap="square" stroke-miterlimit="3"/><path d=" M 934.068 126 L 944 121.781 L 923.277 73 L 880.019 91.377 L 894.727 126 L 934.068 126 L 934.068 126 Z " fill="rgb(142,142,142)" vector-effect="non-scaling-stroke" stroke-width="1" stroke="rgb(23,23,23)" stroke-linejoin="miter" stroke-linecap="square" stroke-miterlimit="3"/></g><g style="isolation:isolate"><path d=" M 923.256 147 C 923.256 152.144 918.096 156.709 919.139 162.194 C 920.065 167.059 925.237 167.292 926 162.709 C 926 158.907 924.663 153.233 922.913 150.605 C 922.209 149.549 922.57 148.134 923.256 147 Z " fill="rgb(74,134,232)"/><path d=" M 910.256 196 C 910.256 201.144 905.096 205.709 906.139 211.194 C 907.065 216.059 912.237 216.292 913 211.709 C 913 207.907 911.663 202.233 909.913 199.605 C 909.209 198.549 909.57 197.134 910.256 196 Z " fill="rgb(74,134,232)"/><path d=" M 930.256 241 C 930.256 246.144 925.096 250.709 926.139 256.194 C 927.065 261.059 932.237 261.292 933 256.709 C 933 252.907 931.663 247.233 929.913 244.605 C 929.209 243.549 929.57 242.134 930.256 241 Z " fill="rgb(74,134,232)"/></g><g/></g></svg>