<svg xmlns="http://www.w3.org/2000/svg" viewBox="0 0 422.83 681.47"><defs><style>.a{fill:#333;}.b{fill:#003537;}.c{opacity:0.37;}</style></defs><title>screwdriver</title><polyline class="a" points="207.39 399.43 402.32 61.8 422.83 0 380.44 49.17 185.51 386.8"/><path class="b" d="M247.22,422.43,145.68,363.8l-.1.6A268.53,268.53,0,0,1,90.06,487.21L34.9,555.68,3.36,610.3a25.07,25.07,0,0,0,9.18,34.24l58.12,33.56a25.07,25.07,0,0,0,34.24-9.18l31.54-54.62,31.81-82.15a268.54,268.54,0,0,1,79-109.73Z"/><path class="c" d="M103.69,429.26h0a12.53,12.53,0,0,1,12.53,12.53V677.5a0,0,0,0,1,0,0H91.16a0,0,0,0,1,0,0V441.79A12.53,12.53,0,0,1,103.69,429.26Z" transform="translate(290.58 22.29) rotate(30)"/></svg>