<svg xmlns="http://www.w3.org/2000/svg" viewBox="0 0 386.7 553.17"><defs><style>.b8b83aef-8fbe-4039-b72d-cd73dea67ccd{fill:#fff;}</style></defs><title>sharp_bone</title><g id="b69d5b46-ba87-445e-b086-97aec1657008" data-name="Layer 2"><g id="e4ef4bcb-46c3-4f08-989a-649401dc9ce7" data-name="Layer 1"><path class="b8b83aef-8fbe-4039-b72d-cd73dea67ccd" d="M239.14,100.62A373.18,373.18,0,0,0,265.5,37l7.11-23A19,19,0,0,1,290.5.5a17.63,17.63,0,0,1,5.66.93A18.48,18.48,0,0,1,307,11.08a90.77,90.77,0,0,1,8.82,34.67l0,.62,4.65-1.25.37-.69c7.25-12.55,13.9-17.9,22.24-17.9,5.28,0,11.46,2.14,19.43,6.74,10.68,6.17,17.83,12.91,21.25,20,3.85,8,3.08,16.83-2.3,26.14-10.21,17.69-20.16,25.93-31.31,25.93A28.32,28.32,0,0,1,336,101.12a41.76,41.76,0,0,1-9.7-7.72,18.45,18.45,0,0,0-12.17-5.8l-6.31-.5c-.57,0-1.16-.07-1.74-.07a22,22,0,0,0-19.5,11.75l-169,319.33,22.26-77.81L5.19,544.39Z"/><path d="M290.5,1h0a17.18,17.18,0,0,1,5.5.9,18,18,0,0,1,10.53,9.4,90.19,90.19,0,0,1,8.77,34.48l.06,1.23,1.2-.32,3.84-1,.41-.11.2-.37.14-.24c0-.09.09-.17.13-.25C328.43,32.31,335,27,343.09,27c5.19,0,11.29,2.12,19.18,6.67,10.59,6.12,17.67,12.78,21.05,19.81,3.78,7.87,3,16.51-2.28,25.68-10.11,17.51-19.93,25.67-30.88,25.67a27.87,27.87,0,0,1-13.87-4.17,41,41,0,0,1-9.58-7.63,19,19,0,0,0-12.5-6l-6.31-.5c-.59,0-1.19-.07-1.78-.07a22.54,22.54,0,0,0-19.95,12C257.37,153,143.46,368.19,119.41,413.65l20-70.08,1.79-6.26-3.58,5.43L10.38,535.62l229.2-434.77A374.72,374.72,0,0,0,266,37.09l7.11-23A18.49,18.49,0,0,1,290.5,1m0-1a19.48,19.48,0,0,0-18.37,13.78L265,36.8a372.21,372.21,0,0,1-26.32,63.59L0,553.17,138.49,343.29l-22.68,79.29L287.06,99a21.58,21.58,0,0,1,19.06-11.48c.57,0,1.14,0,1.71.07l6.3.5A18,18,0,0,1,326,93.74a42,42,0,0,0,9.81,7.82c5.15,3,9.92,4.3,14.37,4.3,12.93,0,23.12-11.23,31.75-26.17,11.59-20.09.94-35.25-19.14-46.85C355,28.35,348.63,26,343.09,26c-8.8,0-15.56,5.84-22.67,18.16-.1.16-.18.34-.28.5l-3.84,1a91.78,91.78,0,0,0-8.87-34.85h0A18.9,18.9,0,0,0,296.32,1a18.2,18.2,0,0,0-5.82-1Z"/></g></g></svg>