<svg xmlns="http://www.w3.org/2000/svg" viewBox="0 0 96.96 132.38"><defs><style>.a{fill:#fff;}.b{fill:#999;}</style></defs><title>skeleton</title><path class="a" d="M94.89,105c5,5,0,11-5,6,0,0-8,4-5-4s6-18,4-33-4-15-4-20c0,0,0-4,5-3s1,4,3,14S89.89,100,94.89,105Z"/><path class="a" d="M87.89,113c2-1,2,0,1,4s-10,19-9,14S87.89,113,87.89,113Z"/><path class="a" d="M83.13,54.58A52.28,52.28,0,0,1,80.89,62S66.05,69.88,46,62.94c.41-.79.82-1.61,1.23-2.43l.3.15S70.37,67.15,83.13,54.58Z"/><path class="a" d="M77.05,71.89c-1.93,4.65-3.16,7.1-3.16,7.1A40.43,40.43,0,0,1,63,78.29a49.51,49.51,0,0,1-6-1.52,49,49,0,0,1-7-2.85,51.32,51.32,0,0,1-7.42-4.51c.72-1.29,1.54-2.8,2.39-4.42C44.89,65,53.21,78.79,77.05,71.89Z"/><path class="a" d="M71.89,4c9,8,7,25-5,27l-2.64,3.17-1.58,1.9a7.56,7.56,0,0,1-1.82,1.56l-4,2.37-1.83-.23L48.89,39s-1-12,.5-16.5h-3s-3-12,7-20C53.39,2.49,62.89-4,71.89,4Zm-4.5,19.5c0-2-5,0-5,0l2,4S67.39,25.49,67.39,23.49Zm-3-9c0-4-3-4-3-4s-3-1-4,0,0,4,1,6S64.39,18.49,64.39,14.49Zm-3,18,1-6-2-1v3c-6-2-10-1-10-1v5C54.39,34.49,61.39,32.49,61.39,32.49ZM54.89,21c1,0,2-6,0-6s-3,2-2,5,0-2,1-3S53.89,21,54.89,21Zm-.5-8.5s-2-4-5-2-2,5,0,6S54.39,12.49,54.39,12.49Z"/><path class="a" d="M63,78.29c5.08,1.3,10.92,5.7,7.92,12.7S54,90.3,54,90.3c.22-1.4.43-2.73.65-4,1.79,3.32,17.2,6.67,14.2.67S56.16,79.1,56.16,79.1A11.85,11.85,0,0,1,56.89,77l.07-.22A49.51,49.51,0,0,0,63,78.29Z"/><path class="a" d="M70.24,45.27c1.5.1,3.06.25,4.52.45,0,0-4.63,14.56-25.25,9.92.89-2,1.69-3.92,2.27-5.65C64.68,53,70.24,45.27,70.24,45.27Z"/><path class="b" d="M62.89,45s3.45,0,7.35.28c0,0-5.56,7.72-18.46,4.72a18,18,0,0,0,1.1-4.72l2-.28.17-5.23,1.83.23,4-2.37a7.56,7.56,0,0,0,1.82-1.56l1.58-1.9Z"/><path class="a" d="M57,76.77l-.07.22a11.85,11.85,0,0,0-.73,2.11c-.47,1.76-1,4.26-1.47,7.22-.22,1.25-.43,2.58-.65,4-2.41,15.42-5,38.28-7.15,39.69-3,2-9,5-10-2-.71-4.94,6-29.76,10.09-44,.25-.88.49-1.72.72-2.51C49,77,49.89,74,49.89,74l0-.07A49,49,0,0,0,57,76.77Z"/><path class="a" d="M38.25,66.92c0-.62-.06-1.27,0-1.93a14,14,0,0,1,.68-4,51.39,51.39,0,0,1,3.2-7.15c.59-1.11,1.18-2.19,1.73-3.16C45.37,48,46.62,46,46.62,46c2.56-.25,4.77-.52,6.26-.72A18,18,0,0,1,51.78,50c-.58,1.73-1.38,3.66-2.27,5.65-.72,1.6-1.51,3.25-2.31,4.87-.41.82-.82,1.64-1.23,2.43s-.72,1.38-1.08,2.05c-.85,1.62-1.67,3.13-2.39,4.42C41,72.17,39.89,74,39.89,74s-.2-.47-.46-1.26a25.15,25.15,0,0,1-1.18-5.81Z"/><path class="a" d="M47.7,81.51c-.23.79-.47,1.63-.72,2.51l-.09,0c-3,3-15,15-19,4S38.8,70.47,38.8,70.47a21.86,21.86,0,0,0,.63,2.26l-.54.26s-11,5-9,11S35.51,91,47.7,81.51Z"/><path class="a" d="M43.82,50.68c-.55,1-1.14,2-1.73,3.16,0,0-8.2-2.48-10.7-7.17v-.08c.9.06,1.85.08,2.83.09C34.47,47,38.89,52.32,43.82,50.68Z"/><path class="a" d="M36.06,64.64A13.14,13.14,0,0,1,38.2,65h0c0,.66,0,1.31,0,1.93-3.63-2-6.36,1.07-8.36,2.07s-2-1-2-1C29.85,64.72,33.66,64.44,36.06,64.64Z"/><path class="a" d="M27.89,55c1,5-4,2-4,13V99c0,8-1,9-6,8s-4-3,0-10,0-37,0-40,0-7,5-7C22.89,50,26.89,50,27.89,55Z"/><path class="a" d="M19.89,109c2,2-16,21-18,22s-3-4,0-7,13-16,13-16S17.89,107,19.89,109Z"/></svg>