<?xml version="1.0" standalone="no"?><!-- Generator: Gravit.io --><svg xmlns="http://www.w3.org/2000/svg" xmlns:xlink="http://www.w3.org/1999/xlink" style="isolation:isolate" viewBox="0 0 1920 1080" width="1920" height="1080"><defs><clipPath id="_clipPath_Dgb4dfCb5xfTKwukTBn8yX7LvCOU2gy6"><rect width="1920" height="1080"/></clipPath></defs><g clip-path="url(#_clipPath_Dgb4dfCb5xfTKwukTBn8yX7LvCOU2gy6)"><g style="isolation:isolate"><path d="M 914.192 483.811 L 1005.808 483.811 C 1012.097 483.811 1017.203 488.917 1017.203 495.206 L 1017.203 584.794 C 1017.203 591.083 1012.097 596.189 1005.808 596.189 L 914.192 596.189 C 907.903 596.189 902.797 591.083 902.797 584.794 L 902.797 495.206 C 902.797 488.917 907.903 483.811 914.192 483.811 Z" style="stroke:none;fill:#00CF00;stroke-miterlimit:10;"/><g><rect x="920.054" y="489.787" width="1.353" height="24.456" transform="matrix(0.761,0.649,-0.649,0.761,546.425,-477.607)" fill="rgb(229,236,229)" vector-effect="non-scaling-stroke" stroke-width="1" stroke="rgb(229,236,229)" stroke-linejoin="miter" stroke-linecap="square" stroke-miterlimit="2"/><rect x="924.68" y="488.113" width="1.465" height="38.747" transform="matrix(0.761,0.649,-0.649,0.761,551.099,-479.337)" fill="rgb(229,236,229)" vector-effect="non-scaling-stroke" stroke-width="1" stroke="rgb(229,236,229)" stroke-linejoin="miter" stroke-linecap="square" stroke-miterlimit="2"/><path d=" M 978 596 L 1008 596 L 1013 594 L 1015 592 L 1017 589 L 1017 586 L 1017 541 L 978 596 Z " fill="rgb(0,166,0)" vector-effect="non-scaling-stroke" stroke-width="1" stroke="rgb(0,166,0)" stroke-linejoin="miter" stroke-linecap="square" stroke-miterlimit="3"/><path d=" M 996 572 L 982 587 L 975 594 L 971 596 L 980 596 L 996 572 Z " fill="rgb(0,166,0)" vector-effect="non-scaling-stroke" stroke-width="1" stroke="rgb(0,166,0)" stroke-linejoin="miter" stroke-linecap="square" stroke-miterlimit="3"/></g><ellipse vector-effect="non-scaling-stroke" cx="960" cy="539.5098305166122" rx="8.83130081300817" ry="8.891744286537346" fill="rgb(0,0,0)"/></g></g></svg>