<?xml version="1.0" standalone="no"?><!-- Generator: Gravit.io --><svg xmlns="http://www.w3.org/2000/svg" xmlns:xlink="http://www.w3.org/1999/xlink" style="isolation:isolate" viewBox="0 0 1920 1080" width="1920" height="1080"><defs><clipPath id="_clipPath_2HgqEOoI2ppQDcmofJDkfdKeQVhkSPuq"><rect width="1920" height="1080"/></clipPath></defs><g clip-path="url(#_clipPath_2HgqEOoI2ppQDcmofJDkfdKeQVhkSPuq)"><rect width="1920" height="1080" style="fill:rgb(35,35,35)"/><g style="isolation:isolate"><rect x="534" y="687" width="757" height="215" transform="matrix(1,0,0,1,0,0)" fill="rgb(68,60,41)"/><rect x="558" y="687" width="707" height="215" transform="matrix(1,0,0,1,0,0)" fill="rgb(210,200,184)"/><rect x="468" y="902" width="898" height="39" transform="matrix(1,0,0,1,0,0)" fill="rgb(91,81,58)"/><g style="isolation:isolate"><rect x="703.728" y="767.39" width="65.596" height="104.489" transform="matrix(0.866,0.5,-0.5,0.866,508.493,-258.453)" fill="rgb(116,0,0)"/><path d=" M 777.655 756.238 L 802.665 770.677 L 791.055 790.786 L 759.384 772.501 L 767.148 759.053 C 769.272 755.374 773.976 754.114 777.655 756.238 Z " fill="rgb(153,153,153)"/><path d=" M 744.298 763.791 L 759.38 772.499 L 765.33 762.195 L 740.194 747.683 L 737.222 752.837 L 747.276 758.642 L 744.298 763.791 L 744.298 763.791 Z " fill="rgb(0,0,0)"/></g><g style="isolation:isolate"><path d=" M 1109.709 873.961 C 1078.644 873.961 1053.461 848.778 1053.461 817.712 C 1053.461 786.647 1078.644 761.464 1109.709 761.464 C 1140.775 761.464 1165.958 786.647 1165.958 817.712 C 1165.923 848.763 1140.76 873.925 1109.709 873.961 L 1109.709 873.961 Z  M 1109.709 767.931 C 1082.216 767.931 1059.928 790.219 1059.928 817.712 C 1059.928 845.206 1082.216 867.494 1109.709 867.494 C 1137.203 867.494 1159.491 845.206 1159.491 817.712 C 1159.459 790.232 1137.19 767.963 1109.709 767.931 L 1109.709 767.931 Z " fill="rgb(96,56,19)"/><path d=" M 1109.709 873.961 C 1078.644 873.961 1053.461 848.778 1053.461 817.712 C 1053.461 786.647 1078.644 761.464 1109.709 761.464 C 1140.775 761.464 1165.958 786.647 1165.958 817.712 C 1165.923 848.763 1140.76 873.925 1109.709 873.961 L 1109.709 873.961 Z  M 1109.709 767.931 C 1082.216 767.931 1059.928 790.219 1059.928 817.712 C 1059.928 845.206 1082.216 867.494 1109.709 867.494 C 1137.203 867.494 1159.491 845.206 1159.491 817.712 C 1159.459 790.232 1137.19 767.963 1109.709 767.931 L 1109.709 767.931 Z " fill="rgb(66,33,11)"/><path d=" M 1186 857.797 C 1176.857 857.797 1165.958 850.84 1165.958 817.712 C 1166.164 797.481 1155.489 778.698 1138.002 768.523 C 1120.515 758.347 1098.91 758.347 1081.423 768.523 C 1063.936 778.698 1053.261 797.481 1053.467 817.712 L 1047 817.712 C 1047 795.307 1058.953 774.604 1078.356 763.402 C 1097.759 752.199 1121.665 752.199 1141.069 763.402 C 1160.472 774.604 1172.425 795.307 1172.425 817.712 C 1172.425 830.267 1174.174 851.33 1186 851.33 L 1186 857.797 Z " fill="rgb(102,102,102)"/></g></g><rect x="468" y="687" width="898" height="39" transform="matrix(1,0,0,1,0,0)" fill="rgb(91,81,58)"/><g style="isolation:isolate"><rect x="468" y="211" width="898" height="476" transform="matrix(1,0,0,1,0,0)" fill="rgb(111,95,61)"/></g><g style="isolation:isolate"><path d=" M 879.983 498.557 L 1049.379 441.106 L 1075.154 426 L 1045.656 430.13 L 876.26 487.581" fill="rgb(51,51,51)"/><path d=" M 886.76 518.542 L 869.483 467.596 L 869.267 467.772 C 852.975 480.938 833.594 489.733 812.957 493.325 L 773.214 500.246 L 745.808 509.539 C 739.794 511.58 736.573 518.11 738.613 524.125 L 748.501 553.287 C 750.543 559.301 757.072 562.522 763.087 560.482 L 790.493 551.19 L 826.323 532.484 C 844.954 522.759 865.764 517.962 886.773 518.548 L 886.76 518.542 Z " fill="rgb(0,53,55)"/><g opacity="0.37"><path d=" M 851.565 501.977 L 851.565 501.977 C 852.584 504.984 850.974 508.248 847.967 509.268 L 745.55 544.002 L 741.857 533.114 L 844.274 498.379 C 845.718 497.889 847.297 497.993 848.664 498.668 C 850.032 499.343 851.075 500.533 851.565 501.977 L 851.565 501.977 Z " fill="rgb(0,0,0)"/></g></g></g></svg>