<svg xmlns="http://www.w3.org/2000/svg" viewBox="0 0 238.37 204"><defs><style>.a{fill:#603813;}.b{fill:#42210b;}.c{fill:#666;}</style></defs><title>ducttape</title><path class="a" d="M107.54,204A96.46,96.46,0,1,1,204,107.54,96.57,96.57,0,0,1,107.54,204Zm0-181.83a85.37,85.37,0,1,0,85.37,85.37A85.47,85.47,0,0,0,107.54,22.17Z"/><path class="b" d="M107.54,204A96.46,96.46,0,1,1,204,107.54,96.57,96.57,0,0,1,107.54,204Zm0-181.83a85.37,85.37,0,1,0,85.37,85.37A85.47,85.47,0,0,0,107.54,22.17Z"/><path class="c" d="M238.37,176.28c-15.68,0-34.37-11.93-34.37-68.74a96.46,96.46,0,1,0-192.91,0H0a107.54,107.54,0,1,1,215.09,0c0,21.53,3,57.65,23.28,57.65Z"/></svg>