<?xml version="1.0" standalone="no"?><!-- Generator: Gravit.io --><svg xmlns="http://www.w3.org/2000/svg" xmlns:xlink="http://www.w3.org/1999/xlink" style="isolation:isolate" viewBox="0 0 1920 1080" width="1920" height="1080"><defs><clipPath id="_clipPath_pKFJSfePRousqZyOYcYU4aZBYwQrCyJa"><rect width="1920" height="1080"/></clipPath></defs><g clip-path="url(#_clipPath_pKFJSfePRousqZyOYcYU4aZBYwQrCyJa)"><rect width="1920" height="1080" style="fill:rgb(46,46,46)"/><g style="isolation:isolate"><path d="M 1650.106 170.811 L 1741.722 170.811 C 1748.011 170.811 1753.117 175.917 1753.117 182.206 L 1753.117 271.794 C 1753.117 278.083 1748.011 283.189 1741.722 283.189 L 1650.106 283.189 C 1643.817 283.189 1638.711 278.083 1638.711 271.794 L 1638.711 182.206 C 1638.711 175.917 1643.817 170.811 1650.106 170.811 Z" style="stroke:none;fill:#00CF00;stroke-miterlimit:10;"/><g><rect x="1655.968" y="176.787" width="1.353" height="24.456" transform="matrix(0.761,0.649,-0.649,0.761,519.417,-1030.375)" fill="rgb(229,236,229)" vector-effect="non-scaling-stroke" stroke-width="1" stroke="rgb(229,236,229)" stroke-linejoin="miter" stroke-linecap="square" stroke-miterlimit="2"/><rect x="1660.594" y="175.113" width="1.465" height="38.747" transform="matrix(0.761,0.649,-0.649,0.761,524.091,-1032.105)" fill="rgb(229,236,229)" vector-effect="non-scaling-stroke" stroke-width="1" stroke="rgb(229,236,229)" stroke-linejoin="miter" stroke-linecap="square" stroke-miterlimit="2"/><path d=" M 1713.914 283 L 1743.914 283 L 1748.914 281 L 1750.914 279 L 1752.914 276 L 1752.914 273 L 1752.914 228 L 1713.914 283 Z " fill="rgb(0,166,0)" vector-effect="non-scaling-stroke" stroke-width="1" stroke="rgb(0,166,0)" stroke-linejoin="miter" stroke-linecap="square" stroke-miterlimit="3"/><path d=" M 1731.914 259 L 1717.914 274 L 1710.914 281 L 1706.914 283 L 1715.914 283 L 1731.914 259 Z " fill="rgb(0,166,0)" vector-effect="non-scaling-stroke" stroke-width="1" stroke="rgb(0,166,0)" stroke-linejoin="miter" stroke-linecap="square" stroke-miterlimit="3"/></g><ellipse vector-effect="non-scaling-stroke" cx="1695.9140474432372" cy="226.50983051661225" rx="8.831300813008056" ry="8.891744286537374" fill="rgb(0,0,0)"/></g><g style="isolation:isolate"/><g style="isolation:isolate"><path d=" M 799.11 1071.974 L 799.11 441.932 C 799.11 308.953 871.143 201.152 960 201.152 C 1048.857 201.152 1120.89 308.953 1120.89 441.932 L 1120.89 1071.974 L 799.11 1071.974 Z " fill="rgb(153,153,153)"/><path d=" M 960 209.178 C 1001.248 209.178 1040.807 233.7 1069.974 277.35 C 1099.141 321 1115.527 380.202 1115.527 441.932 L 1115.527 1063.948 L 804.473 1063.948 L 804.473 441.932 C 804.473 313.385 874.105 209.178 960 209.178 Z  M 960 193.125 C 868.224 193.28 793.851 304.584 793.747 441.932 L 793.747 1080 L 1126.253 1080 L 1126.253 441.932 C 1126.149 304.584 1051.776 193.28 960 193.125 L 960 193.125 Z " fill="rgb(96,56,19)"/><clipPath id="_clipPath_wB0rgGwgh1XifQuxHy9MaOrWIGYOdvzw"><path d=" M 960 209.178 C 874.105 209.178 804.473 313.385 804.473 441.932 L 804.473 1063.948 L 1115.527 1063.948 L 1115.527 441.932 C 1115.527 380.202 1099.141 321 1069.974 277.35 C 1040.807 233.7 1001.248 209.178 960 209.178 Z " fill="rgb(255,255,255)"/></clipPath><g clip-path="url(#_clipPath_wB0rgGwgh1XifQuxHy9MaOrWIGYOdvzw)"><g><g opacity="0.29"><rect x="677.044" y="326.276" width="616.873" height="66.619" transform="matrix(0.757,0.654,-0.382,0.991,377.294,-641.129)" fill="rgb(255,255,255)"/></g><g opacity="0.29"><rect x="677.044" y="559.028" width="616.873" height="66.619" transform="matrix(0.757,0.654,-0.382,0.991,466.294,-639.077)" fill="rgb(255,255,255)"/></g><g opacity="0.29"><rect x="677.044" y="791.78" width="616.873" height="66.619" transform="matrix(0.757,0.654,-0.382,0.991,555.295,-637.024)" fill="rgb(255,255,255)"/></g><g opacity="0.29"><rect x="677.044" y="1024.533" width="616.873" height="66.619" transform="matrix(0.757,0.654,-0.382,0.991,644.296,-634.971)" fill="rgb(255,255,255)"/></g></g></g></g><g style="isolation:isolate"><rect x="154.5" y="318" width="448" height="757" transform="matrix(1,0,0,1,0,0)" fill="rgb(46,46,46)" vector-effect="non-scaling-stroke" stroke-width="10" stroke="rgb(232,221,75)" stroke-linejoin="miter" stroke-linecap="square" stroke-miterlimit="2"/><rect x="159.5" y="1059" width="439" height="21" transform="matrix(1,0,0,1,0,0)" fill="rgb(46,46,46)"/></g><g style="isolation:isolate"/><g style="isolation:isolate"><path d=" M 1823.718 864.812 C 1841.091 882.185 1823.718 903.033 1806.345 885.66 C 1806.345 885.66 1778.548 899.558 1788.972 871.762 C 1799.396 843.965 1809.819 809.218 1802.87 757.099 C 1795.921 704.98 1788.972 704.98 1788.972 687.607 C 1788.972 687.607 1788.972 673.709 1806.345 677.183 C 1823.718 680.658 1809.819 691.082 1816.769 725.828 C 1823.718 760.574 1806.345 847.439 1823.718 864.812 Z " fill="rgb(255,255,255)"/><path d=" M 1799.396 892.609 C 1806.345 889.135 1806.345 892.609 1802.87 906.508 C 1799.396 920.406 1768.124 972.525 1771.599 955.152 C 1775.073 937.779 1799.396 892.609 1799.396 892.609 Z " fill="rgb(255,255,255)"/><path d=" M 1782.856 689.622 C 1780.904 698.397 1778.302 707.014 1775.073 715.404 C 1775.073 715.404 1723.51 742.784 1653.844 718.67 C 1655.269 715.925 1656.693 713.076 1658.118 710.227 L 1659.16 710.748 C 1659.16 710.748 1738.52 733.298 1782.856 689.622 Z " fill="rgb(255,255,255)"/><path d=" M 1761.731 749.768 C 1755.025 765.925 1750.751 774.438 1750.751 774.438 C 1738.086 775.341 1725.357 774.522 1712.912 772.005 C 1705.86 770.681 1698.897 768.918 1692.065 766.724 C 1683.714 764.054 1675.583 760.743 1667.742 756.821 C 1658.721 752.336 1650.097 747.093 1641.961 741.151 C 1644.463 736.669 1647.312 731.422 1650.265 725.793 C 1649.987 725.828 1678.896 773.743 1761.731 749.768 Z " fill="rgb(255,255,255)"/><path d=" M 1743.802 513.876 C 1775.073 541.673 1768.124 600.742 1726.429 607.691 L 1717.256 618.705 L 1711.766 625.307 C 1709.96 627.439 1707.825 629.269 1705.442 630.728 L 1691.544 638.962 L 1685.185 638.163 L 1663.886 635.488 C 1663.886 635.488 1660.411 593.792 1665.623 578.157 L 1655.199 578.157 C 1655.199 578.157 1644.775 536.461 1679.521 508.664 C 1679.521 508.63 1712.53 486.079 1743.802 513.876 Z  M 1728.166 581.631 C 1728.166 574.682 1710.793 581.631 1710.793 581.631 L 1717.742 595.53 C 1717.742 595.53 1728.166 588.546 1728.166 581.597 L 1728.166 581.631 Z  M 1717.742 550.36 C 1717.742 536.461 1707.318 536.461 1707.318 536.461 C 1707.318 536.461 1696.894 532.987 1693.42 536.461 C 1689.945 539.936 1693.42 550.36 1696.894 557.309 C 1700.369 564.258 1717.742 564.223 1717.742 550.325 L 1717.742 550.36 Z  M 1707.318 612.903 L 1710.793 592.055 L 1703.844 588.581 L 1703.844 599.004 C 1682.996 592.055 1669.098 595.53 1669.098 595.53 L 1669.098 612.903 C 1682.996 619.817 1707.318 612.868 1707.318 612.868 L 1707.318 612.903 Z  M 1684.733 572.945 C 1688.208 572.945 1691.683 552.097 1684.733 552.097 C 1677.784 552.097 1674.309 559.046 1677.784 569.47 C 1681.259 579.894 1677.784 562.521 1681.259 559.046 C 1684.733 555.572 1681.259 572.945 1684.733 572.945 Z  M 1682.996 543.411 C 1682.996 543.411 1676.047 529.512 1665.623 536.461 C 1665.623 536.461 1658.674 553.834 1665.623 557.309 C 1672.572 560.784 1682.996 543.376 1682.996 543.376 L 1682.996 543.411 Z " fill="rgb(255,255,255)"/><path d=" M 1712.912 772.005 C 1730.563 776.522 1750.855 791.811 1740.431 816.133 C 1730.008 840.455 1681.641 813.735 1681.641 813.735 C 1682.405 808.871 1683.135 804.25 1683.899 799.837 C 1690.119 811.373 1743.663 823.013 1733.239 802.165 C 1722.815 781.317 1689.146 774.82 1689.146 774.82 C 1689.761 772.313 1690.61 769.87 1691.683 767.523 L 1691.926 766.759 C 1698.804 768.946 1705.814 770.698 1712.912 772.005 L 1712.912 772.005 Z " fill="rgb(255,255,255)"/><path d=" M 1738.069 657.274 C 1743.281 657.621 1748.701 658.142 1753.774 658.837 C 1753.774 658.837 1737.686 709.428 1666.04 693.305 C 1669.132 686.356 1671.912 679.685 1673.927 673.674 C 1718.75 684.132 1738.069 657.274 1738.069 657.274 Z " fill="rgb(255,255,255)"/><path d=" M 1712.53 656.335 C 1712.53 656.335 1724.518 656.335 1738.069 657.308 C 1738.069 657.308 1718.75 684.132 1673.927 673.709 C 1675.935 668.439 1677.22 662.922 1677.749 657.308 L 1684.699 656.335 L 1685.289 638.163 L 1691.648 638.962 L 1705.546 630.728 C 1707.929 629.269 1710.064 627.439 1711.87 625.307 L 1717.36 618.705 L 1712.53 656.335 Z " fill="rgb(153,153,153)"/><path d=" M 1692.065 766.724 L 1691.822 767.488 C 1690.747 769.847 1689.898 772.302 1689.285 774.82 C 1687.652 780.935 1685.81 789.622 1684.177 799.907 C 1683.413 804.25 1682.683 808.871 1681.919 813.805 C 1673.545 867.384 1664.546 946.813 1657.075 951.712 C 1646.652 958.662 1625.804 969.085 1622.329 944.763 C 1619.862 927.599 1643.177 841.359 1657.388 791.88 C 1658.257 788.822 1659.091 785.904 1659.89 783.159 C 1664.268 767.523 1667.36 757.099 1667.36 757.099 L 1667.36 756.856 C 1675.325 760.785 1683.585 764.084 1692.065 766.724 L 1692.065 766.724 Z " fill="rgb(255,255,255)"/><path d=" M 1626.916 732.499 C 1626.916 730.345 1626.707 728.086 1626.916 725.793 C 1627.024 721.07 1627.82 716.388 1629.278 711.895 C 1632.347 703.343 1636.064 695.037 1640.397 687.051 C 1642.447 683.194 1644.497 679.442 1646.408 676.071 C 1651.655 666.759 1655.998 659.81 1655.998 659.81 C 1664.893 658.941 1672.572 658.003 1677.749 657.308 C 1677.22 662.922 1675.935 668.439 1673.927 673.709 C 1671.912 679.72 1669.132 686.426 1666.04 693.34 C 1663.538 698.899 1660.793 704.633 1658.014 710.261 C 1656.589 713.111 1655.164 715.96 1653.74 718.705 C 1652.315 721.45 1651.238 723.5 1649.987 725.828 C 1647.034 731.457 1644.185 736.703 1641.683 741.186 C 1636.471 750.741 1632.614 757.099 1632.614 757.099 C 1632.614 757.099 1631.919 755.466 1631.016 752.721 C 1628.858 746.177 1627.482 739.401 1626.916 732.534 L 1626.916 732.499 Z " fill="rgb(255,255,255)"/><path d=" M 1659.751 783.194 C 1658.952 785.939 1658.118 788.857 1657.249 791.915 L 1656.936 791.915 C 1646.513 802.339 1604.817 844.034 1590.919 805.813 C 1577.02 767.593 1628.827 744.834 1628.827 744.834 C 1629.415 747.489 1630.146 750.11 1631.016 752.687 L 1629.14 753.59 C 1629.14 753.59 1590.919 770.963 1597.868 791.811 C 1604.817 812.658 1617.395 816.168 1659.751 783.194 Z " fill="rgb(255,255,255)"/><path d=" M 1646.269 676.071 C 1644.358 679.546 1642.308 683.021 1640.258 687.051 C 1640.258 687.051 1611.766 678.434 1603.08 662.138 L 1603.08 661.86 C 1606.207 662.069 1609.508 662.138 1612.913 662.173 C 1613.782 663.285 1629.14 681.77 1646.269 676.071 Z " fill="rgb(255,255,255)"/><path d=" M 1619.306 724.577 C 1621.815 724.788 1624.302 725.206 1626.742 725.828 L 1626.742 725.828 C 1626.742 728.121 1626.742 730.379 1626.742 732.534 C 1614.129 725.585 1604.643 736.252 1597.694 739.726 C 1590.745 743.201 1590.745 736.252 1590.745 736.252 C 1597.729 724.855 1610.967 723.882 1619.306 724.577 Z " fill="rgb(255,255,255)"/><path d=" M 1590.919 691.082 C 1594.393 708.455 1577.02 698.031 1577.02 736.252 L 1577.02 843.965 C 1577.02 871.762 1573.546 875.236 1556.173 871.762 C 1538.8 868.287 1542.274 861.338 1556.173 837.015 C 1570.071 812.693 1556.173 708.455 1556.173 698.031 C 1556.173 687.607 1556.173 673.709 1573.546 673.709 C 1573.546 673.709 1587.444 673.709 1590.919 691.082 Z " fill="rgb(255,255,255)"/><path d=" M 1563.122 878.711 C 1570.071 885.66 1507.528 951.678 1500.579 955.152 C 1493.63 958.627 1490.155 941.254 1500.579 930.83 C 1511.003 920.406 1545.749 875.236 1545.749 875.236 C 1545.749 875.236 1556.173 871.762 1563.122 878.711 Z " fill="rgb(255,255,255)"/></g><g style="isolation:isolate"><rect x="1432" y="840" width="462" height="240" transform="matrix(1,0,0,1,0,0)" fill="rgb(79,58,58)"/></g></g></svg>