<svg xmlns="http://www.w3.org/2000/svg" viewBox="0 0 17 22"><defs><style>.a{fill:#fff;}.b{fill:#b3b3b3;}.c{fill:#333;}</style></defs><title>hand</title><path class="a" d="M15,4a1,1,0,0,0-.5.14,1,1,0,0,1-.5.14V10H13V2a1,1,0,0,0-1.75-.65,1,1,0,0,1-.25.19V9H10V1.54a1,1,0,0,1-.25-.19,1,1,0,0,0-1.68.32,1,1,0,0,1-.06.1V9H7V2.32a1,1,0,0,1-.44-.15A1,1,0,0,0,5,3v8a1,1,0,0,1-2,0,1,1,0,0,0-2,0v.11a1.16,1.16,0,0,0,0,.14,9.35,9.35,0,0,0,.86,2.31,10.76,10.76,0,0,0,1.2,1.69A11,11,0,0,1,5.94,21H14a12.75,12.75,0,0,1,1.06-4.45A8.06,8.06,0,0,0,16,12V5A1,1,0,0,0,15,4Z"/><path class="b" d="M14,4.28a1,1,0,0,0,.5-.14A1,1,0,0,1,15,4a1,1,0,0,1,.49.15,1,1,0,0,1-.49.13V10H14ZM9,9V1.77a1,1,0,0,0,.06-.1,1,1,0,0,1,.44-.53A.94.94,0,0,0,9,1a1,1,0,0,0-.94.67,1,1,0,0,1-.06.1V9Zm3,0V1.54a1,1,0,0,0,.25-.19,1.11,1.11,0,0,1,.24-.2A1,1,0,0,0,12,1a1,1,0,0,0-.75.35,1,1,0,0,1-.25.19V9ZM2.89,13.55A9.35,9.35,0,0,1,2,11.25a1.16,1.16,0,0,1,0-.14V11a1,1,0,0,1,.5-.84A1,1,0,0,0,2,10a1,1,0,0,0-1,1v.11a1.16,1.16,0,0,0,0,.14,9.35,9.35,0,0,0,.86,2.31,10.76,10.76,0,0,0,1.2,1.69A11,11,0,0,1,5.94,21h1A11,11,0,0,0,4.1,15.25,10.76,10.76,0,0,1,2.89,13.55ZM5,12a1,1,0,0,0,1-1V3a1,1,0,0,1,.51-.85A1,1,0,0,0,5,3v8a1,1,0,0,1-.5.85A1,1,0,0,0,5,12Z"/><path class="c" d="M15,3a2,2,0,0,0-1,.28V2A2,2,0,0,0,10.5.69a2,2,0,0,0-3.38.65A2,2,0,0,0,4,3v8a2,2,0,0,0-4,0,2.44,2.44,0,0,0,0,.24,2,2,0,0,0,0,.25A10.24,10.24,0,0,0,1,14c1,2,4,4,4,8H15a13.38,13.38,0,0,1,1-5,9,9,0,0,0,1-5V5A2,2,0,0,0,15,3Zm1,9a8.06,8.06,0,0,1-.89,4.55A12.75,12.75,0,0,0,14,21H5.94A11,11,0,0,0,3.1,15.25a10.76,10.76,0,0,1-1.2-1.69A9.35,9.35,0,0,1,1,11.25a1.16,1.16,0,0,1,0-.14V11a1,1,0,0,1,2,0,1,1,0,0,0,2,0V3a1,1,0,0,1,1.56-.83A1,1,0,0,0,7,2.32V9H8V1.77a1,1,0,0,0,.06-.1,1,1,0,0,1,1.68-.32,1,1,0,0,0,.25.19V9h1V1.54a1,1,0,0,0,.25-.19A1,1,0,0,1,13,2v8h1V4.28a1,1,0,0,0,.5-.14A1,1,0,0,1,15,4a1,1,0,0,1,1,1Z"/></svg>