<?xml version="1.0" standalone="no"?><!-- Generator: Gravit.io --><svg xmlns="http://www.w3.org/2000/svg" xmlns:xlink="http://www.w3.org/1999/xlink" style="isolation:isolate" viewBox="0 0 1920 1080" width="1920" height="1080"><defs><clipPath id="_clipPath_eZVVz7Tauvx0szv4epywOthLxj6lDBjp"><rect width="1920" height="1080"/></clipPath></defs><g clip-path="url(#_clipPath_eZVVz7Tauvx0szv4epywOthLxj6lDBjp)"><path d=" M 753.299 595.583 C 727.203 550.383 739.323 494.457 780.347 470.772 C 821.371 447.087 875.864 464.554 901.96 509.754 C 928.056 554.954 915.937 610.88 874.913 634.565 C 833.889 658.25 779.396 640.783 753.299 595.583 Z " fill="rgb(253,184,80)"/><path d=" M 790.243 574.254 C 780.261 556.965 782.119 537.178 794.389 530.094 C 806.659 523.01 824.724 531.294 834.706 548.583 C 844.687 565.872 842.83 585.659 830.56 592.743 C 818.29 599.828 800.224 591.543 790.243 574.254 Z " fill="rgb(255,255,255)"/><rect x="1001.742" y="294.521" width="42" height="291" transform="matrix(-0.513,-0.858,0.858,-0.513,1170.19,1543.595)" fill="rgb(253,184,80)"/><rect x="1088.847" y="315.561" width="45.5" height="22" transform="matrix(-0.513,-0.858,0.858,-0.513,1402.029,1448.14)" fill="rgb(253,184,80)"/><rect x="1057.953" y="334.043" width="45.5" height="22" transform="matrix(-0.513,-0.858,0.858,-0.513,1339.414,1449.598)" fill="rgb(253,184,80)"/><rect x="1027.059" y="352.524" width="45.5" height="22" transform="matrix(-0.513,-0.858,0.858,-0.513,1276.8,1451.056)" fill="rgb(253,184,80)"/><rect x="1087.029" y="327.006" width="22" height="94" transform="matrix(-0.513,-0.858,0.858,-0.513,1340.781,1508.299)" fill="rgb(253,184,80)"/></g></svg>