<svg xmlns="http://www.w3.org/2000/svg" xmlns:xlink="http://www.w3.org/1999/xlink" viewBox="0 0 183.57 290.95"><defs><style>.a{fill:none;}.b{fill:#999;}.c{fill:#603813;}.d{clip-path:url(#a);}.e{fill:#fff;opacity:0.29;}</style><clipPath id="a"><path class="a" d="M82.29,21a58,58,0,0,0-58,58V234h116V79A58,58,0,0,0,82.29,21Z"/></clipPath></defs><title>mirror</title><path class="b" d="M22.29,236V79a60,60,0,0,1,120,0V236Z"/><path class="c" d="M82.29,21a58,58,0,0,1,58,58V234h-116V79a58,58,0,0,1,58-58m0-4a62.07,62.07,0,0,0-62,62V238h124V79a62.07,62.07,0,0,0-62-62Z"/><g class="d"><rect class="e" x="-8.71" y="48.98" width="201" height="19" transform="translate(41.54 -38.06) rotate(30)"/><rect class="e" x="-8.71" y="106.98" width="201" height="19" transform="translate(70.54 -30.29) rotate(30)"/><rect class="e" x="-8.71" y="164.98" width="201" height="19" transform="translate(99.54 -22.52) rotate(30)"/><rect class="e" x="-8.71" y="222.98" width="201" height="19" transform="translate(128.54 -14.75) rotate(30)"/></g></svg>