<?xml version="1.0" standalone="no"?><!-- Generator: Gravit.io --><svg xmlns="http://www.w3.org/2000/svg" xmlns:xlink="http://www.w3.org/1999/xlink" style="isolation:isolate" viewBox="0 0 1920 1080" width="1920" height="1080"><defs><clipPath id="_clipPath_ojoqoZEjeu3FGz6hMJPeVExs5s7dxWH6"><rect width="1920" height="1080"/></clipPath></defs><g clip-path="url(#_clipPath_ojoqoZEjeu3FGz6hMJPeVExs5s7dxWH6)"><rect width="1920" height="1080" style="fill:rgb(46,46,46)"/><g style="isolation:isolate"><g><rect x="1388" y="268" width="311" height="373" transform="matrix(1,0,0,1,0,0)" fill="rgb(93,93,93)"/><path d="" fill-rule="evenodd" fill="rgb(37,18,72)"/><path d=" M 1417 474.374 L 1526 474.374 L 1526 609 L 1417 609 L 1417 474.374 L 1417 474.374 L 1417 474.374 Z  M 1565 474.374 L 1674 474.374 L 1674 609 L 1565 609 L 1565 474.374 L 1565 474.374 L 1565 474.374 Z  M 1417 307 L 1526 307 L 1526 441.626 L 1417 441.626 L 1417 307 L 1417 307 Z  M 1565 307 L 1674 307 L 1674 441.626 L 1565 441.626 L 1565 307 Z " fill-rule="evenodd" fill="rgb(29,28,100)"/><defs><filter id="Czsgi3dOx4mTr7qOmSynDgTrkguFnwtm" x="-200%" y="-200%" width="400%" height="400%" filterUnits="objectBoundingBox" color-interpolation-filters="sRGB"><feOffset xmlns="http://www.w3.org/2000/svg" in="SourceGraphic" dx="0" dy="0"/><feGaussianBlur xmlns="http://www.w3.org/2000/svg" stdDeviation="0" result="pf_100_offsetBlur"/><feComposite xmlns="http://www.w3.org/2000/svg" in="SourceGraphic" in2="pf_100_offsetBlur" result="pf_100_inverse" operator="out"/><feFlood xmlns="http://www.w3.org/2000/svg" flood-color="#000000" flood-opacity="0.5" result="pf_100_color"/><feComposite xmlns="http://www.w3.org/2000/svg" in="pf_100_color" in2="pf_100_inverse" operator="in" result="pf_100_shadow"/><feComposite xmlns="http://www.w3.org/2000/svg" in="pf_100_shadow" in2="SourceGraphic" operator="over" result="_out_O6gJp9ObBIQBBlc0yhNTqAG9GtpnjMzm"/><feOffset xmlns="http://www.w3.org/2000/svg" in="_out_O6gJp9ObBIQBBlc0yhNTqAG9GtpnjMzm" dx="0" dy="0"/><feGaussianBlur xmlns="http://www.w3.org/2000/svg" stdDeviation="0" result="pf_101_offsetBlur"/><feComposite xmlns="http://www.w3.org/2000/svg" in="_out_O6gJp9ObBIQBBlc0yhNTqAG9GtpnjMzm" in2="pf_101_offsetBlur" result="pf_101_inverse" operator="out"/><feFlood xmlns="http://www.w3.org/2000/svg" flood-color="#000000" flood-opacity="0.5" result="pf_101_color"/><feComposite xmlns="http://www.w3.org/2000/svg" in="pf_101_color" in2="pf_101_inverse" operator="in" result="pf_101_shadow"/><feComposite xmlns="http://www.w3.org/2000/svg" in="pf_101_shadow" in2="_out_O6gJp9ObBIQBBlc0yhNTqAG9GtpnjMzm" operator="over" result="_out_xD2ewwdI8IOXtbUmhABJVXptHoYu39db"/><feMerge><feMergeNode in="_out_xD2ewwdI8IOXtbUmhABJVXptHoYu39db"/></feMerge></filter></defs><g filter="url(#Czsgi3dOx4mTr7qOmSynDgTrkguFnwtm)"><rect x="1366" y="638" width="355" height="53" transform="matrix(1,0,0,1,0,0)" fill="rgb(83,82,82)"/></g><g><path d=" M 1524 440 L 1524 306 L 1418 440 L 1524 440 Z " fill="rgb(17,16,59)" vector-effect="non-scaling-stroke" stroke-width="1" stroke="rgb(17,16,59)" stroke-linejoin="miter" stroke-linecap="square" stroke-miterlimit="3"/><path d=" M 1672 440 L 1672 306 L 1566 440 L 1672 440 Z " fill="rgb(17,16,59)" vector-effect="non-scaling-stroke" stroke-width="1" stroke="rgb(17,16,59)" stroke-linejoin="miter" stroke-linecap="square" stroke-miterlimit="3"/><path d=" M 1524 607 L 1524 473 L 1418 607 L 1524 607 Z " fill="rgb(17,16,59)" vector-effect="non-scaling-stroke" stroke-width="1" stroke="rgb(17,16,59)" stroke-linejoin="miter" stroke-linecap="square" stroke-miterlimit="3"/><path d=" M 1672 607 L 1672 473 L 1566 607 L 1672 607 Z " fill="rgb(17,16,59)" vector-effect="non-scaling-stroke" stroke-width="1" stroke="rgb(17,16,59)" stroke-linejoin="miter" stroke-linecap="square" stroke-miterlimit="3"/><path d=" M 1720.825 691 L 1721 636.888 L 1650.826 690.774 L 1720.825 691 Z " fill="rgb(62,59,59)" vector-effect="non-scaling-stroke" stroke-width="1" stroke="rgb(62,59,59)" stroke-linejoin="miter" stroke-linecap="square" stroke-miterlimit="3"/></g></g></g><g style="isolation:isolate"><path d=" M 1761 125 L 1761 125.25 L 77 125.25 L 77 66.25 L 1761 66.25 L 1761 125" fill="rgb(235,235,235)" vector-effect="non-scaling-stroke" stroke-width="1" stroke="rgb(139,139,139)" stroke-linejoin="miter" stroke-linecap="square" stroke-miterlimit="3"/><path d="M 72.29 -13 L 91.71 -13 C 103.46 -13 113 -3.46 113 8.29 L 113 103.71 C 113 115.46 103.46 125 91.71 125 L 72.29 125 C 60.54 125 51 115.46 51 103.71 L 51 8.29 C 51 -3.46 60.54 -13 72.29 -13 Z" style="stroke:none;fill:#EBEBEB;stroke-miterlimit:10;"/><path d=" M 1786.71 125 C 1786.71 125 1786.71 125 1786.71 125 L 1767.29 125 C 1767.29 125 1767.29 125 1767.29 125 L 1786.71 125 L 1786.71 125 Z " fill="rgb(235,235,235)"/><path d=" M 1786.71 125 C 1798.46 125 1808 115.46 1808 103.71 L 1808 8.29 C 1808 -3.46 1798.46 -13 1786.71 -13 L 1767.29 -13 C 1755.54 -13 1746 -3.46 1746 8.29 L 1746 103.71 C 1746 115.46 1755.54 125 1767.29 125 L 1786.71 125 L 1786.71 125 Z " fill="rgb(235,235,235)"/><path d=" M 1792.1 125 L 1791 125.5 L 1769 129.5 L 1750 129.5 L 1752.055 125 L 1792.1 125 L 1792.1 125 Z " fill="rgb(46,46,46)" vector-effect="non-scaling-stroke" stroke-width="1" stroke="rgb(46,46,46)" stroke-linejoin="miter" stroke-linecap="square" stroke-miterlimit="3"/><path d=" M 142 114 L 87 123.736 L 142 124.5 L 142 114 Z " fill="rgb(189,185,185)" vector-effect="non-scaling-stroke" stroke-width="1" stroke="rgb(189,185,185)" stroke-linejoin="miter" stroke-linecap="square" stroke-miterlimit="3"/><g><rect x="143" y="115" width="1647" height="10.5" transform="matrix(1,0,0,1,0,0)" fill="rgb(189,185,185)" vector-effect="non-scaling-stroke" stroke-width="1" stroke="rgb(189,185,185)" stroke-linejoin="miter" stroke-linecap="square" stroke-miterlimit="2"/><rect x="1793" y="0" width="16.1" height="110" transform="matrix(1,0,0,1,0,0)" fill="rgb(189,185,185)" vector-effect="non-scaling-stroke" stroke-width="1" stroke="rgb(189,185,185)" stroke-linejoin="miter" stroke-linecap="square" stroke-miterlimit="2"/></g><path d=" M 941.5 69.75 L 978.5 92.25 L 941.5 69.75 L 941.5 69.75 L 941.5 69.75 Z  M 941.5 106.75 L 978.5 121.75 L 941.5 106.75 L 941.5 106.75 L 941.5 106.75 Z  M 978.5 92.25 L 941.5 106.75 L 978.5 92.25 Z " fill-rule="evenodd" fill="none" vector-effect="non-scaling-stroke" stroke-width="4" stroke="rgb(93,93,93)" stroke-linejoin="miter" stroke-linecap="square" stroke-miterlimit="3"/><path d=" M 1794.2 104.71 L 1787.1 115 L 1787.1 125.5 L 1791.1 124.736 L 1798.1 122.75 L 1803.1 120 L 1806.1 115 L 1810.1 107.75 L 1794.2 104.71 Z " fill="rgb(189,185,185)" vector-effect="non-scaling-stroke" stroke-width="1" stroke="rgb(189,185,185)" stroke-linejoin="miter" stroke-linecap="square" stroke-miterlimit="3"/></g><g style="isolation:isolate"><path d="M 914.192 483.811 L 1005.808 483.811 C 1012.097 483.811 1017.203 488.917 1017.203 495.206 L 1017.203 584.794 C 1017.203 591.083 1012.097 596.189 1005.808 596.189 L 914.192 596.189 C 907.903 596.189 902.797 591.083 902.797 584.794 L 902.797 495.206 C 902.797 488.917 907.903 483.811 914.192 483.811 Z" style="stroke:none;fill:#00CF00;stroke-miterlimit:10;"/><g><rect x="920.054" y="489.787" width="1.353" height="24.456" transform="matrix(0.761,0.649,-0.649,0.761,546.425,-477.607)" fill="rgb(229,236,229)" vector-effect="non-scaling-stroke" stroke-width="1" stroke="rgb(229,236,229)" stroke-linejoin="miter" stroke-linecap="square" stroke-miterlimit="2"/><rect x="924.68" y="488.113" width="1.465" height="38.747" transform="matrix(0.761,0.649,-0.649,0.761,551.099,-479.337)" fill="rgb(229,236,229)" vector-effect="non-scaling-stroke" stroke-width="1" stroke="rgb(229,236,229)" stroke-linejoin="miter" stroke-linecap="square" stroke-miterlimit="2"/><path d=" M 978 596 L 1008 596 L 1013 594 L 1015 592 L 1017 589 L 1017 586 L 1017 541 L 978 596 Z " fill="rgb(0,166,0)" vector-effect="non-scaling-stroke" stroke-width="1" stroke="rgb(0,166,0)" stroke-linejoin="miter" stroke-linecap="square" stroke-miterlimit="3"/><path d=" M 996 572 L 982 587 L 975 594 L 971 596 L 980 596 L 996 572 Z " fill="rgb(0,166,0)" vector-effect="non-scaling-stroke" stroke-width="1" stroke="rgb(0,166,0)" stroke-linejoin="miter" stroke-linecap="square" stroke-miterlimit="3"/></g><ellipse vector-effect="non-scaling-stroke" cx="960" cy="539.5098305166122" rx="8.83130081300817" ry="8.891744286537346" fill="rgb(0,0,0)"/></g><g style="isolation:isolate"><ellipse vector-effect="non-scaling-stroke" cx="960" cy="540" rx="8.83130081300817" ry="8.891744286537346" fill="rgb(230,8,8)" stroke-width="2" stroke="rgb(0,0,0)" stroke-linejoin="miter" stroke-linecap="square" stroke-miterlimit="3"/></g><g style="isolation:isolate"><path d=" M 966.256 147 C 966.256 152.144 961.096 156.709 962.139 162.194 C 963.065 167.059 968.237 167.292 969 162.709 C 969 158.907 967.663 153.233 965.913 150.605 C 965.209 149.549 965.57 148.134 966.256 147 Z " fill="rgb(74,134,232)"/><path d=" M 953.256 196 C 953.256 201.144 948.096 205.709 949.139 211.194 C 950.065 216.059 955.237 216.292 956 211.709 C 956 207.907 954.663 202.233 952.913 199.605 C 952.209 198.549 952.57 197.134 953.256 196 Z " fill="rgb(74,134,232)"/><path d=" M 973.256 241 C 973.256 246.144 968.096 250.709 969.139 256.194 C 970.065 261.059 975.237 261.292 976 256.709 C 976 252.907 974.663 247.233 972.913 244.605 C 972.209 243.549 972.57 242.134 973.256 241 Z " fill="rgb(74,134,232)"/></g><g style="isolation:isolate"><g><path d="M 209.19 734 L 482.81 734 C 488.986 734 494 739.014 494 745.19 L 494 1068.81 C 494 1074.986 488.986 1080 482.81 1080 L 209.19 1080 C 203.014 1080 198 1074.986 198 1068.81 L 198 745.19 C 198 739.014 203.014 734 209.19 734 Z" style="stroke:none;fill:#1C0A25;stroke-miterlimit:10;"/><path d="M 244.723 788 L 451.277 788 C 455.9 788 459.653 791.753 459.653 796.377 L 459.653 1036.623 C 459.653 1041.247 455.9 1045 451.277 1045 L 244.723 1045 C 240.1 1045 236.347 1041.247 236.347 1036.623 L 236.347 796.377 C 236.347 791.753 240.1 788 244.723 788 Z" style="stroke:none;fill:#535050;stroke-miterlimit:10;"/><rect x="285" y="854" width="122" height="106" transform="matrix(1,0,0,1,0,0)" fill="rgb(47,47,47)"/><rect x="298.347" y="897.5" width="24" height="19" transform="matrix(1,0,0,1,0,0)" fill="rgb(77,77,77)"/><rect x="220.306" y="861.5" width="20.694" height="30.5" transform="matrix(1,0,0,1,0,0)" fill="rgb(56,56,56)"/><rect x="220.306" y="896.25" width="20.694" height="30.5" transform="matrix(1,0,0,1,0,0)" fill="rgb(56,56,56)"/><rect x="220.306" y="931.75" width="20.694" height="30.5" transform="matrix(1,0,0,1,0,0)" fill="rgb(56,56,56)"/><circle vector-effect="non-scaling-stroke" cx="310.34682080924847" cy="907.0000000000005" r="2" fill="rgb(255,255,255)"/><g><rect x="334" y="897.5" width="24" height="19" transform="matrix(1,0,0,1,0,0)" fill="rgb(77,77,77)"/><circle vector-effect="non-scaling-stroke" cx="345.99999999999983" cy="907.0000000000005" r="2" fill="rgb(255,255,255)"/></g><rect x="298.347" y="926" width="24" height="19" transform="matrix(1,0,0,1,0,0)" fill="rgb(77,77,77)"/><circle vector-effect="non-scaling-stroke" cx="310.3468208092485" cy="935.5000000000003" r="2" fill="rgb(255,255,255)"/><rect x="334" y="926" width="24" height="19" transform="matrix(1,0,0,1,0,0)" fill="rgb(77,77,77)"/><circle vector-effect="non-scaling-stroke" cx="345.9999999999998" cy="935.5000000000003" r="2" fill="rgb(255,255,255)"/><rect x="370" y="926" width="24" height="19" transform="matrix(1,0,0,1,0,0)" fill="rgb(77,77,77)"/><circle vector-effect="non-scaling-stroke" cx="382.00000000000006" cy="935.4999999999999" r="2" fill="rgb(255,255,255)"/><rect x="370" y="897.5" width="24" height="19" transform="matrix(1,0,0,1,0,0)" fill="rgb(77,77,77)"/><circle vector-effect="non-scaling-stroke" cx="382" cy="907" r="2" fill="rgb(255,255,255)"/><rect x="369.347" y="869" width="24" height="19" transform="matrix(1,0,0,1,0,0)" fill="rgb(77,77,77)"/><circle vector-effect="non-scaling-stroke" cx="381.3468208092484" cy="878.5000000000001" r="2" fill="rgb(255,255,255)"/><rect x="298.347" y="869" width="24" height="19" transform="matrix(1,0,0,1,0,0)" fill="rgb(77,77,77)"/><circle vector-effect="non-scaling-stroke" cx="310.3468208092486" cy="878.5000000000007" r="2" fill="rgb(255,255,255)"/><rect x="334" y="869" width="24" height="19" transform="matrix(1,0,0,1,0,0)" fill="rgb(77,77,77)"/><circle vector-effect="non-scaling-stroke" cx="345.99999999999966" cy="878.5000000000006" r="2" fill="rgb(255,255,255)"/></g></g></g></svg>