<?xml version="1.0" standalone="no"?><!-- Generator: Gravit.io --><svg xmlns="http://www.w3.org/2000/svg" xmlns:xlink="http://www.w3.org/1999/xlink" style="isolation:isolate" viewBox="0 0 1920 1080" width="1920" height="1080"><defs><clipPath id="_clipPath_fB8Qllewg0CppOZ1IHh33rGV9A9qxIH5"><rect width="1920" height="1080"/></clipPath></defs><g clip-path="url(#_clipPath_fB8Qllewg0CppOZ1IHh33rGV9A9qxIH5)"><rect width="1920" height="1080" style="fill:rgb(46,46,46)"/><g style="isolation:isolate"/><g style="isolation:isolate"><rect x="1115.5" y="719" width="58.5" height="361" transform="matrix(1,0,0,1,0,0)" fill="rgb(138,112,55)"/><rect x="479" y="719" width="65.5" height="361" transform="matrix(1,0,0,1,0,0)" fill="rgb(138,112,55)"/><rect x="479" y="621" width="695" height="196" transform="matrix(1,0,0,1,0,0)" fill="rgb(138,112,55)"/><path d="M 531.5 663 L 1121.5 663 C 1121.5 663 1121.5 663 1121.5 663 L 1121.5 764 C 1121.5 764 1121.5 764 1121.5 764 L 531.5 764 C 531.5 764 531.5 764 531.5 764 L 531.5 663 C 531.5 663 531.5 663 531.5 663 Z" style="stroke:none;fill:#5B513A;stroke-miterlimit:10;"/><rect x="880" y="706" width="5" height="13" transform="matrix(1,0,0,1,0,0)" fill="rgb(0,0,0)"/><rect x="768" y="713.5" width="117" height="5.5" transform="matrix(1,0,0,1,0,0)" fill="rgb(25,23,23)"/><rect x="768" y="706" width="6" height="13" transform="matrix(1,0,0,1,0,0)" fill="rgb(0,0,0)"/><path d=" M 516.333 923 C 516.333 923 515 920.333 515 920.333 C 515 920.333 511.667 930.333 511.667 930.333 C 510.353 939.093 511.667 949.562 511.667 958.333 C 511.667 969.368 508.142 975.719 515.667 973.667 C 524.445 971.272 521.721 982.015 522.333 989.667 C 524.4 1015.505 526.924 1020.56 531 1008.333 C 541.37 977.225 533.667 961.82 533.667 947 C 533.667 937.979 535.927 891.87 519 900.333 C 514.658 902.504 513 917.7 516.333 923 Z " fill="rgb(100,12,12)"/><g><path d=" M 1171.752 639.208 C 1167.866 641.269 1156.295 670.657 1157.034 678.408 C 1157.377 682.008 1169.407 656.111 1170.626 650.968 C 1171.85 645.801 1172.617 640.018 1171.752 639.208 Z " fill="rgb(100,12,12)"/><path d=" M 1145.188 665.852 C 1139.928 672.118 1155.535 667.434 1147.81 665.426 L 1147.482 665 L 1145.188 665.852 Z " fill="rgb(100,12,12)" vector-effect="non-scaling-stroke" stroke-width="1" stroke="rgb(100,12,12)" stroke-linejoin="miter" stroke-linecap="square" stroke-miterlimit="3"/><path d=" M 1141 679.75 C 1135.954 697.409 1157.159 680.773 1143 678.75 L 1141 679.75 Z " fill="rgb(100,12,12)" vector-effect="non-scaling-stroke" stroke-width="1" stroke="rgb(100,12,12)" stroke-linejoin="miter" stroke-linecap="square" stroke-miterlimit="3"/><path d=" M 1145.397 658.413 C 1149.374 658.274 1152.81 645.976 1154.31 641.921 C 1163.334 617.529 1159.404 624.534 1148.634 644.462 C 1147.974 651.575 1147.176 655.122 1145.397 658.413 Z " fill="rgb(100,12,12)" vector-effect="non-scaling-stroke" stroke-width="1" stroke="rgb(100,12,12)" stroke-linejoin="miter" stroke-linecap="square" stroke-miterlimit="3"/><path d=" M 1143.333 624 C 1144.978 628.933 1131.939 641.026 1133.333 648 C 1133.9 650.834 1139.092 641.936 1139.333 641.333 C 1143.589 634.95 1145.232 628.526 1143.333 624 Z " fill="rgb(100,12,12)"/></g><path d=" M 548 822 L 604 1080 L 548 1080 L 548 822 Z " fill="rgb(23,23,23)" vector-effect="non-scaling-stroke" stroke-width="1" stroke="rgb(23,23,23)" stroke-linejoin="miter" stroke-linecap="square" stroke-miterlimit="3"/><path d=" M 1178 623 L 1270 1080 L 1178 1080 L 1178 623 Z " fill="rgb(23,23,23)" vector-effect="non-scaling-stroke" stroke-width="1" stroke="rgb(0,0,0)" stroke-linejoin="miter" stroke-linecap="square" stroke-miterlimit="3"/></g><g style="isolation:isolate"><rect x="1186" y="0" width="502" height="468" transform="matrix(1,0,0,1,0,0)" fill="rgb(115,97,60)"/><rect x="1240" y="74.5" width="197" height="319" transform="matrix(1,0,0,1,0,0)" fill="rgb(204,178,122)"/><rect x="1443" y="74.5" width="197" height="319" transform="matrix(1,0,0,1,0,0)" fill="rgb(200,175,121)"/><rect x="1406.716" y="267.466" width="3.568" height="13" transform="matrix(0,-1,1,0,1134.534,1682.466)" fill="rgb(0,0,0)"/><rect x="1370.5" y="231.25" width="83.5" height="5.5" transform="matrix(0,-1,1,0,1178.25,1646.25)" fill="rgb(25,23,23)"/><rect x="1406.359" y="187.891" width="4.282" height="13" transform="matrix(0,-1,1,0,1214.109,1602.891)" fill="rgb(0,0,0)"/><rect x="1467.716" y="267.466" width="3.568" height="13" transform="matrix(0,1,-1,0,1743.466,-1195.534)" fill="rgb(0,0,0)"/><rect x="1424" y="231.25" width="83.5" height="5.5" transform="matrix(0,1,-1,0,1699.75,-1231.75)" fill="rgb(25,23,23)"/><rect x="1467.359" y="187.891" width="4.282" height="13" transform="matrix(0,1,-1,0,1663.891,-1275.109)" fill="rgb(0,0,0)"/><path d=" M 1656.061 351.515 C 1656.19 354.749 1657.837 356.584 1659.091 359.091 C 1666.071 373.051 1663.23 386.696 1671.212 400 C 1672.722 402.517 1676.026 405.082 1677.273 407.576 C 1677.273 407.576 1677.273 415.152 1677.273 415.152 C 1677.273 425.669 1686.364 424.812 1686.364 433.333" fill="none" vector-effect="non-scaling-stroke" stroke-width="3" stroke="rgb(94,78,48)" stroke-linejoin="miter" stroke-linecap="square" stroke-miterlimit="3"/><path d=" M 1688 8.875 L 1808 468 L 1688 468 L 1688 8.875 Z " fill="rgb(23,23,23)" vector-effect="non-scaling-stroke" stroke-width="1" stroke="rgb(23,23,23)" stroke-linejoin="miter" stroke-linecap="square" stroke-miterlimit="3"/><path d=" M 1644.998 356.43 C 1643.089 358.555 1646.234 362.018 1647.126 364.732 C 1653.087 382.873 1664.419 391.248 1676.207 404.837" fill="none" vector-effect="non-scaling-stroke" stroke-width="2" stroke="rgb(94,78,48)" stroke-linejoin="miter" stroke-linecap="square" stroke-miterlimit="3"/><path d=" M 1209.091 135.606 C 1210.294 170.104 1209.835 203.148 1206.061 237.121 C 1200.824 301.706 1202.383 295.05 1206.061 306.818 C 1210.18 320.002 1209.091 324.818 1209.091 338.636 C 1209.091 369.424 1201.515 383.305 1201.515 397.727" fill="none" vector-effect="non-scaling-stroke" stroke-width="2" stroke="rgb(94,78,48)" stroke-linejoin="miter" stroke-linecap="square" stroke-miterlimit="3"/><path d=" M 1186 420 L 1193.415 433.333 L 1207.401 437.879 L 1212.878 452 L 1224 468 L 1186 468 L 1186 420 Z " fill="rgb(46,46,46)" vector-effect="non-scaling-stroke" stroke-width="1" stroke="rgb(46,46,46)" stroke-linejoin="miter" stroke-linecap="square" stroke-miterlimit="3"/></g><path d="M 200.636 176 L 263.364 176 C 280.824 176 295 190.176 295 207.636 L 295 260.364 C 295 277.824 280.824 292 263.364 292 L 200.636 292 C 183.176 292 169 277.824 169 260.364 L 169 207.636 C 169 190.176 183.176 176 200.636 176 Z" style="stroke:none;fill:#171717;stroke-miterlimit:10;"/><clipPath id="_clipPath_mdxrkJefjtXngPInWEW30itf0dieOoeg"><path d=" M 1186 415.152 L 1186 764 L -734 764 L -734 -316 L 1186 -316 L 1186 415.152" fill="rgb(255,255,255)"/></clipPath><g clip-path="url(#_clipPath_mdxrkJefjtXngPInWEW30itf0dieOoeg)"><g><g><path d=" M 180.192 167.811 L 271.808 167.811 C 278.097 167.811 283.203 172.917 283.203 179.206 L 283.203 268.794 C 283.203 275.083 278.097 280.189 271.808 280.189 L 180.192 280.189 C 173.903 280.189 168.797 275.083 168.797 268.794 L 168.797 179.206 C 168.797 172.917 173.903 167.811 180.192 167.811 Z " fill="rgb(0,207,0)"/><g><rect x="186.617" y="173.751" width="1.353" height="24.46" transform="matrix(0.761,0.649,-0.649,0.761,165.468,-77.062)" fill="rgb(229,236,229)" vector-effect="non-scaling-stroke" stroke-width="1" stroke="rgb(229,236,229)" stroke-opacity="100" stroke-linejoin="miter" stroke-linecap="square" stroke-miterlimit="2"/><rect x="191.247" y="172.076" width="1.465" height="38.753" transform="matrix(0.761,0.649,-0.649,0.761,170.139,-78.794)" fill="rgb(229,236,229)" vector-effect="non-scaling-stroke" stroke-width="1" stroke="rgb(229,236,229)" stroke-opacity="100" stroke-linejoin="miter" stroke-linecap="square" stroke-miterlimit="2"/><path d=" M 244 280 L 274 280 L 279 278 L 281 276 L 283 273 L 283 270 L 283 225 L 244 280 Z " fill="rgb(0,166,0)" vector-effect="non-scaling-stroke" stroke-width="1" stroke="rgb(0,166,0)" stroke-opacity="100" stroke-linejoin="miter" stroke-linecap="square" stroke-miterlimit="3"/><path d=" M 262 256 L 248 271 L 241 278 L 237 280 L 246 280 L 262 256 Z " fill="rgb(0,166,0)" vector-effect="non-scaling-stroke" stroke-width="1" stroke="rgb(0,166,0)" stroke-opacity="100" stroke-linejoin="miter" stroke-linecap="square" stroke-miterlimit="3"/></g><ellipse vector-effect="non-scaling-stroke" cx="226.00000000000006" cy="223.50983051661223" rx="8.83130081300817" ry="8.891744286537346" fill="rgb(0,0,0)"/></g></g></g></g></svg>